<svg width="166" height="31" viewBox="0 0 166 31" fill="none" xmlns="http://www.w3.org/2000/svg">
<path id="Ellipse 41" d="M164.5 15.5C164.5 15.9851 164.242 16.6581 163.303 17.5158C162.366 18.3706 160.9 19.2657 158.872 20.1611C154.826 21.9472 148.879 23.5917 141.415 24.9856C126.51 27.769 105.856 29.5 83 29.5C60.1435 29.5 39.4901 27.769 24.5855 24.9856C17.1209 23.5917 11.1738 21.9472 7.12841 20.1611C5.10047 19.2657 3.63399 18.3706 2.69741 17.5158C1.75759 16.6581 1.5 15.9851 1.5 15.5C1.5 15.0149 1.75759 14.3419 2.69741 13.4842C3.63399 12.6294 5.10047 11.7343 7.12841 10.8389C11.1738 9.05279 17.1209 7.40834 24.5855 6.01435C39.4901 3.23097 60.1435 1.5 83 1.5C105.856 1.5 126.51 3.23097 141.415 6.01435C148.879 7.40834 154.826 9.05279 158.872 10.8389C160.9 11.7343 162.366 12.6294 163.303 13.4842C164.242 14.3419 164.5 15.0149 164.5 15.5Z" stroke="#F2AC0D" stroke-width="3"/>
</svg>
