<svg width="162" height="135" viewBox="0 0 162 135" fill="none" xmlns="http://www.w3.org/2000/svg">
<g id="Group 17551">
<g id="Social">
<g id="Group 431">
<circle id="Ellipse 731" cx="21" cy="113" r="21" fill="#D1CDB7"/>
<path id="Vector" d="M22.3318 120.99V113.04H24.7211L25.0379 110.242H22.3318L22.3359 108.842C22.3359 108.112 22.4098 107.721 23.5272 107.721H25.0211V104.923H22.6313C19.7606 104.923 18.7504 106.28 18.7504 108.563V110.243H16.9609V113.041H18.7504V120.878C19.4475 121.008 20.1682 121.077 20.9062 121.077C21.3829 121.077 21.8591 121.048 22.3318 120.99Z" fill="#1C3F39"/>
</g>
<g id="Group 432">
<circle id="Ellipse 731_2" cx="141" cy="114" r="21" fill="#D1CDB7"/>
<path id="Vector_2" d="M151.5 107.835C150.719 108.16 149.887 108.375 149.019 108.479C149.912 107.974 150.593 107.182 150.913 106.226C150.081 106.696 149.162 107.028 148.183 107.213C147.393 106.416 146.267 105.923 145.039 105.923C142.655 105.923 140.736 107.754 140.736 110C140.736 110.323 140.765 110.634 140.836 110.929C137.257 110.764 134.09 109.14 131.962 106.666C131.591 107.276 131.373 107.974 131.373 108.726C131.373 110.138 132.141 111.389 133.285 112.114C132.593 112.101 131.915 111.911 131.34 111.611C131.34 111.624 131.34 111.64 131.34 111.656C131.34 113.637 132.832 115.282 134.789 115.661C134.439 115.752 134.057 115.795 133.661 115.795C133.385 115.795 133.107 115.78 132.845 115.726C133.403 117.34 134.986 118.527 136.868 118.565C135.404 119.65 133.544 120.304 131.53 120.304C131.177 120.304 130.839 120.289 130.5 120.248C132.407 121.412 134.667 122.077 137.105 122.077C145.027 122.077 149.358 115.864 149.358 110.478C149.358 110.298 149.351 110.124 149.342 109.951C150.197 109.377 150.915 108.66 151.5 107.835Z" fill="#1C3F39"/>
</g>
<g id="Group 433">
<circle id="Ellipse 731_3" cx="81" cy="114" r="21" fill="#F2AC0D"/>
<path id="Vector_3" d="M72.9238 107.799C72.9238 107.255 73.1148 106.807 73.4969 106.453C73.8789 106.1 74.3755 105.923 74.9867 105.923C75.587 105.923 76.0727 106.097 76.4438 106.445C76.8258 106.804 77.0169 107.272 77.0169 107.848C77.0169 108.37 76.8313 108.806 76.4602 109.154C76.0782 109.513 75.5761 109.692 74.954 109.692H74.9376C74.3373 109.692 73.8516 109.513 73.4805 109.154C73.1094 108.795 72.9238 108.343 72.9238 107.799ZM73.1367 122.077V111.177H76.7713V122.077H73.1367ZM78.7851 122.077H82.4197V115.99C82.4197 115.61 82.4633 115.316 82.5506 115.109C82.7034 114.739 82.9354 114.427 83.2465 114.171C83.5575 113.915 83.9477 113.788 84.4171 113.788C85.6395 113.788 86.2508 114.609 86.2508 116.252V122.077H89.8854V115.827C89.8854 114.217 89.5034 112.996 88.7393 112.164C87.9753 111.332 86.9657 110.916 85.7105 110.916C84.3025 110.916 83.2055 111.52 82.4197 112.727V112.76H82.4033L82.4197 112.727V111.177H78.7851C78.8069 111.525 78.8178 112.607 78.8178 114.424C78.8178 116.241 78.8069 118.792 78.7851 122.077Z" fill="#1C3F39"/>
</g>
</g>
<g id="Logo">
<g id="quran">
<path d="M56.3216 21.0533H53.4749V15.3133C53.3272 15.5933 53.1405 15.8617 52.9149 16.1183C52.6972 16.375 52.4366 16.6122 52.1333 16.83C51.8377 17.0478 51.4994 17.2189 51.1183 17.3433C50.7449 17.4678 50.3327 17.53 49.8816 17.53C48.9405 17.53 48.0888 17.3122 47.3266 16.8767C46.5722 16.4333 45.9694 15.745 45.5183 14.8117C45.0749 13.8706 44.8533 12.6456 44.8533 11.1367C44.8533 9.81444 45.0438 8.69833 45.4249 7.78833C45.806 6.87056 46.3505 6.17833 47.0583 5.71167C47.7738 5.23722 48.6255 5 49.6133 5C50.0877 5 50.5233 5.06222 50.9199 5.18667C51.3244 5.30333 51.686 5.46278 52.0049 5.665C52.3316 5.86722 52.6155 6.09667 52.8566 6.35333C53.0977 6.61 53.2999 6.87055 53.4633 7.135L53.4749 5.23333H56.3216V21.0533ZM50.5116 15.4067C51.1727 15.4067 51.7249 15.2161 52.1683 14.835C52.6116 14.4461 52.9422 13.9328 53.1599 13.295C53.3777 12.6494 53.4866 11.9456 53.4866 11.1833C53.4866 10.0011 53.2377 9.02889 52.7399 8.26667C52.2499 7.49667 51.5072 7.11167 50.5116 7.11167C49.6638 7.11167 48.956 7.45 48.3883 8.12667C47.8283 8.80333 47.5483 9.82222 47.5483 11.1833C47.5483 12.5367 47.8088 13.5789 48.3299 14.31C48.8588 15.0411 49.586 15.4067 50.5116 15.4067Z" fill="#1C3F39"/>
<path d="M63.9547 17.53C63.3636 17.53 62.7919 17.4444 62.2397 17.2733C61.6953 17.0944 61.2053 16.8378 60.7697 16.5033C60.3341 16.1611 59.988 15.7411 59.7314 15.2433C59.4747 14.7456 59.3464 14.1661 59.3464 13.505V5.23333H62.193V13.1783C62.193 13.8317 62.3991 14.3683 62.8114 14.7883C63.2314 15.2083 63.8614 15.4183 64.7014 15.4183C65.4636 15.4183 66.0741 15.22 66.533 14.8233C66.9919 14.4189 67.2214 13.8394 67.2214 13.085V5.23333H70.0447V17.2967H67.863L67.548 14.94C67.4003 15.6011 67.1397 16.1222 66.7664 16.5033C66.4008 16.8767 65.9691 17.1411 65.4714 17.2967C64.9814 17.4522 64.4758 17.53 63.9547 17.53Z" fill="#1C3F39"/>
<path d="M73.1932 17.2967V5.23333H75.9116V7.84667C76.106 7.24778 76.3821 6.73833 76.7399 6.31833C77.1055 5.89055 77.5332 5.56389 78.0232 5.33833C78.5132 5.11278 79.046 5 79.6216 5C79.7616 5 79.8977 5.00778 80.0299 5.02333C80.1621 5.03889 80.2594 5.06611 80.3216 5.105V7.82333C80.236 7.78444 80.1232 7.75722 79.9832 7.74167C79.851 7.72611 79.7344 7.71833 79.6332 7.71833C79.0499 7.67167 78.5327 7.695 78.0816 7.78833C77.6382 7.88167 77.261 8.04111 76.9499 8.26667C76.6466 8.48444 76.4171 8.76444 76.2616 9.10667C76.106 9.44111 76.0282 9.83389 76.0282 10.285V17.2967H73.1932Z" fill="#1C3F39"/>
<path d="M85.6806 17.53C84.9106 17.53 84.2184 17.39 83.6039 17.11C82.9973 16.8222 82.5189 16.4139 82.1689 15.885C81.8267 15.3483 81.6556 14.6989 81.6556 13.9367C81.6556 12.6067 82.1339 11.6033 83.0906 10.9267C84.055 10.25 85.5911 9.89611 87.6989 9.865L89.4956 9.81833V9.00167C89.4956 8.36389 89.305 7.86611 88.9239 7.50833C88.5506 7.14278 87.9673 6.96389 87.1739 6.97167C86.5906 6.97944 86.0539 7.11944 85.5639 7.39167C85.0817 7.65611 84.7628 8.10333 84.6073 8.73333H82.1923C82.2389 7.90889 82.4761 7.22056 82.9039 6.66833C83.3395 6.10833 83.9345 5.69222 84.6889 5.42C85.4434 5.14 86.3145 5 87.3023 5C88.4534 5 89.3906 5.15167 90.1139 5.455C90.8373 5.75833 91.37 6.19778 91.7123 6.77333C92.0545 7.34111 92.2256 8.02944 92.2256 8.83833V17.2967H89.8339L89.6123 15.1267C89.1767 16.0367 88.6245 16.6667 87.9556 17.0167C87.2945 17.3589 86.5361 17.53 85.6806 17.53ZM86.6023 15.605C86.9523 15.605 87.2984 15.5428 87.6406 15.4183C87.9828 15.2861 88.2939 15.1111 88.5739 14.8933C88.8539 14.6678 89.0756 14.4189 89.2389 14.1467C89.41 13.8744 89.4956 13.5906 89.4956 13.295V11.3933L88.0139 11.4167C87.2828 11.4244 86.645 11.5022 86.1006 11.65C85.5561 11.7978 85.1284 12.035 84.8173 12.3617C84.5139 12.6806 84.3623 13.1083 84.3623 13.645C84.3623 14.2594 84.5761 14.7417 85.0039 15.0917C85.4317 15.4339 85.9645 15.605 86.6023 15.605Z" fill="#1C3F39"/>
<path d="M95.5468 17.2967V5.23333H98.3234V6.96C98.5101 6.64889 98.7629 6.34944 99.0818 6.06167C99.4084 5.77389 99.809 5.54056 100.283 5.36167C100.758 5.18278 101.314 5.09333 101.952 5.09333C102.698 5.09333 103.391 5.24111 104.028 5.53667C104.674 5.83222 105.191 6.295 105.58 6.925C105.977 7.555 106.175 8.36778 106.175 9.36333V17.2967H103.328V9.70167C103.328 8.90833 103.111 8.32111 102.675 7.94C102.24 7.55111 101.691 7.35667 101.03 7.35667C100.579 7.35667 100.151 7.43444 99.7468 7.59C99.3423 7.73778 99.0118 7.96722 98.7551 8.27833C98.5062 8.58167 98.3818 8.96278 98.3818 9.42167V17.2967H95.5468Z" fill="#1C3F39"/>
</g>
<g id="Logo_2">
<g id="Group 17552">
<path id="Union" d="M36.6147 18.9053C31.6334 18.2591 25.0047 18.5316 18.8074 25.5004C12.6101 18.5316 5.9814 18.2591 1.00005 18.9053L4.45169 15.3782C11.2922 14.4126 16.8855 17.4156 18.8074 19.0377C20.7293 17.4156 26.3226 14.4126 33.1631 15.3782L36.6147 18.9053Z" fill="#F2AC0D"/>
<path id="Union_2" d="M22.1938 22.3466C21.0591 23.2023 19.9262 24.2421 18.8074 25.5003C17.6885 24.2421 16.5556 23.2023 15.4209 22.3466L18.8074 19.0376L22.1938 22.3466Z" fill="#D29303"/>
</g>
<path id="Union_3" d="M30.3666 13.3946C30.3405 12.1579 28.8826 9.21609 23.845 6.24819C22.0553 5.19381 18.8699 2.96789 18.8074 0C18.7449 2.96789 15.5595 5.19381 13.7698 6.24819C8.73221 9.21609 7.2743 12.1579 7.24826 13.3946C9.51323 12.965 14.9413 13.7851 18.8074 17.1044C22.6735 13.7851 28.1016 12.965 30.3666 13.3946Z" fill="#26534C"/>
</g>
</g>
</g>
</svg>
